<?xml version="1.0" encoding="UTF-8" standalone="no"?><!DOCTYPE svg PUBLIC "-//W3C//DTD SVG 1.1//EN" "http://www.w3.org/Graphics/SVG/1.1/DTD/svg11.dtd"><svg width="100%" height="100%" viewBox="0 0 381 37" version="1.1" xmlns="http://www.w3.org/2000/svg" xmlns:xlink="http://www.w3.org/1999/xlink" xml:space="preserve" xmlns:serif="http://www.serif.com/" style="fill-rule:evenodd;clip-rule:evenodd;stroke-linejoin:round;stroke-miterlimit:2;"><g id="femme-dorée" serif:id="femme dorée"><path d="M0.955,35.451l0,-27.493l17.879,0l0,3.045l-12.354,0l0,7.744l10.788,0l0,3.001l-10.788,0l0,13.703l-5.525,0Z" style="fill:#fff;fill-rule:nonzero;"/><path d="M50.634,32.319l0,3.132l-18.619,0l0,-27.493l18.619,0l0,3.045l-13.094,0l0,7.744l10.789,0l0,3.001l-10.789,0l0,10.571l13.094,0Z" style="fill:#fff;fill-rule:nonzero;"/><path d="M68.775,35.451l-3.524,0l0,-27.493l5.568,0l10.484,20.142l10.006,-20.142l4.48,0l0,27.493l-5.481,0l0,-18.009l-9.135,18.227l-2.306,0l-10.092,-20.054l0,19.836Z" style="fill:#fff;fill-rule:nonzero;"/><path d="M115.8,35.451l-3.523,0l0,-27.493l5.568,0l10.484,20.142l10.005,-20.142l4.481,0l0,27.493l-5.481,0l0,-18.009l-9.136,18.227l-2.305,0l-10.093,-20.054l0,19.836Z" style="fill:#fff;fill-rule:nonzero;"/><path d="M177.921,32.319l0,3.132l-18.619,0l0,-27.493l18.619,0l0,3.045l-13.094,0l0,7.744l10.789,0l0,3.001l-10.789,0l0,10.571l13.094,0Z" style="fill:#fff;fill-rule:nonzero;"/><path d="M237.302,21.618c0,4.35 -1.284,7.743 -3.85,10.179c-2.567,2.436 -6.359,3.654 -11.376,3.654l-10.832,0l0,-27.493l12.267,0c1.914,0 3.749,0.268 5.503,0.805c1.755,0.536 3.249,1.406 4.481,2.61c1.233,1.204 2.175,2.668 2.828,4.394c0.652,1.725 0.979,3.676 0.979,5.851Zm-16.053,-10.615l-4.524,0l0,21.316l4.524,0c3.103,0 5.583,-0.978 7.439,-2.936c1.856,-1.958 2.784,-4.575 2.784,-7.852c0,-1.334 -0.181,-2.625 -0.544,-3.872c-0.362,-1.247 -0.949,-2.371 -1.761,-3.371c-0.812,-1.001 -1.885,-1.798 -3.22,-2.393c-1.334,-0.594 -2.9,-0.892 -4.698,-0.892Z" style="fill:#fff;fill-rule:nonzero;"/><path d="M278.759,21.705c0,2.059 -0.348,3.98 -1.044,5.764c-0.696,1.783 -1.682,3.313 -2.958,4.589c-1.276,1.276 -2.799,2.262 -4.568,2.958c-1.769,0.696 -3.683,1.044 -5.742,1.044c-2.059,0 -3.973,-0.348 -5.742,-1.044c-1.77,-0.696 -3.285,-1.682 -4.546,-2.958c-1.262,-1.276 -2.234,-2.798 -2.915,-4.567c-0.682,-1.77 -1.022,-3.698 -1.022,-5.786c0,-2.059 0.34,-3.973 1.022,-5.742c0.681,-1.77 1.653,-3.292 2.915,-4.568c1.261,-1.276 2.776,-2.255 4.546,-2.937c1.769,-0.681 3.683,-1.022 5.742,-1.022c2.059,0 3.973,0.341 5.742,1.022c1.769,0.682 3.292,1.661 4.568,2.937c1.276,1.276 2.262,2.798 2.958,4.568c0.696,1.769 1.044,3.683 1.044,5.742Zm-22.926,0c0,1.653 0.189,3.19 0.566,4.611c0.377,1.421 0.928,2.646 1.653,3.676c0.725,1.029 1.631,1.834 2.719,2.414c1.087,0.58 2.313,0.87 3.676,0.87c0.667,0 1.399,-0.094 2.197,-0.282c0.797,-0.189 1.566,-0.544 2.305,-1.066c0.74,-0.522 1.429,-1.233 2.067,-2.132c0.638,-0.899 1.145,-2.059 1.522,-3.48c0.377,-1.421 0.566,-2.958 0.566,-4.611c0,-1.624 -0.196,-3.147 -0.588,-4.568c-0.391,-1.421 -0.964,-2.646 -1.718,-3.676c-0.754,-1.029 -1.689,-1.827 -2.806,-2.392c-1.116,-0.566 -2.356,-0.849 -3.719,-0.849c-1.015,0 -2.03,0.189 -3.045,0.566c-1.015,0.377 -1.922,1.029 -2.719,1.957c-0.798,0.928 -1.443,2.132 -1.936,3.611c-0.493,1.479 -0.74,3.263 -0.74,5.351Z" style="fill:#fff;fill-rule:nonzero;"/><path d="M315.997,35.451l-7.048,0l-8.047,-12.876l-1.958,0l0,12.876l-5.525,0l0,-27.493l10.876,0c2.784,0 4.901,0.653 6.351,1.958c1.45,1.305 2.175,3.088 2.175,5.35c0,0.871 -0.203,1.784 -0.609,2.741c-0.406,0.957 -1.08,1.827 -2.023,2.61c-0.942,0.783 -1.965,1.276 -3.067,1.479l8.875,13.355Zm-14.225,-24.752l-2.828,0l0,9.222l2.915,0c0.754,0 1.537,-0.145 2.349,-0.435c0.812,-0.29 1.472,-0.841 1.979,-1.653c0.508,-0.812 0.761,-1.769 0.761,-2.871c0,-1.305 -0.464,-2.342 -1.392,-3.11c-0.928,-0.769 -2.189,-1.153 -3.784,-1.153Z" style="fill:#fff;fill-rule:nonzero;"/><path d="M343.142,5.392l-4.133,2.566l8.44,0l0,3.045l-13.094,0l0,7.744l10.788,0l0,3.001l-10.788,0l0,10.571l13.094,0l0,3.132l-18.619,0l0,-27.493l6.699,0l4.611,-6.264c0.261,-0.348 0.609,-0.645 1.044,-0.892c0.435,-0.246 0.87,-0.37 1.306,-0.37c0.667,0 1.232,0.247 1.696,0.74c0.464,0.493 0.696,1.087 0.696,1.783c0,0.899 -0.58,1.711 -1.74,2.437Z" style="fill:#fff;fill-rule:nonzero;"/><path d="M380.684,32.319l0,3.132l-18.619,0l0,-27.493l18.619,0l0,3.045l-13.094,0l0,7.744l10.789,0l0,3.001l-10.789,0l0,10.571l13.094,0Z" style="fill:#fff;fill-rule:nonzero;"/></g></svg>